<svg width="294" height="393" viewBox="0 0 294 393" fill="none" xmlns="http://www.w3.org/2000/svg">
<g filter="url(#filter0_d_1357_28445)">
<rect x="4" width="286" height="385" rx="10" fill="white" shape-rendering="crispEdges"/>
<rect x="79" y="36" width="136" height="136" rx="10" fill="#E0DDE8"/>
<path d="M187.278 87.2338C186.902 87.2338 186.532 87.2512 186.162 87.2744C179.815 71.8558 164.646 61 146.937 61C129.229 61 114.06 71.8558 107.713 87.2744C107.343 87.2492 106.972 87.2338 106.597 87.2338C97.4303 87.2338 90 94.6641 90 103.83C90 112.997 97.4303 120.427 106.597 120.427C107.091 120.427 107.581 120.402 108.063 120.359C114.606 135.336 129.546 145.804 146.935 145.804C164.324 145.804 179.266 135.336 185.807 120.359C186.292 120.402 186.78 120.427 187.274 120.427C196.44 120.427 203.871 112.997 203.871 103.83C203.871 94.6641 196.44 87.2338 187.274 87.2338H187.278Z" fill="#764AF1"/>
<path d="M143.228 113.17C143.228 111.457 143.392 110.072 143.718 109.013C144.045 107.955 144.499 107.105 145.081 106.465C145.663 105.824 146.458 105.197 147.465 104.585C148.132 104.167 148.7 103.735 149.169 103.289C149.651 102.844 150.02 102.349 150.276 101.806C150.531 101.249 150.659 100.636 150.659 99.968C150.659 99.216 150.482 98.5475 150.127 97.9626C149.772 97.3777 149.268 96.9251 148.615 96.6048C147.976 96.2845 147.274 96.1313 146.507 96.1452C145.769 96.1313 145.081 96.2775 144.442 96.5839C143.803 96.8903 143.278 97.3568 142.866 97.9835C142.455 98.6102 142.228 99.3691 142.185 100.26H136.862C136.905 98.45 137.359 96.9111 138.225 95.6439C139.091 94.3626 140.241 93.4017 141.674 92.7611C143.122 92.1066 144.733 91.7793 146.507 91.7793C148.423 91.7793 150.12 92.1135 151.596 92.782C153.072 93.4365 154.215 94.3766 155.024 95.6021C155.833 96.8276 156.237 98.255 156.237 99.8844C156.237 101.514 155.847 102.913 155.066 104.083C154.3 105.253 153.193 106.27 151.745 107.133C150.893 107.634 150.219 108.15 149.722 108.679C149.225 109.194 148.849 109.814 148.594 110.538C148.338 111.248 148.203 112.126 148.189 113.17V113.567H143.228V113.17ZM145.847 122.779C145.237 122.779 144.676 122.633 144.165 122.341C143.668 122.048 143.271 121.651 142.973 121.15C142.675 120.649 142.533 120.105 142.547 119.521C142.533 118.95 142.675 118.42 142.973 117.933C143.271 117.432 143.668 117.042 144.165 116.763C144.676 116.471 145.237 116.324 145.847 116.324C146.429 116.324 146.969 116.471 147.465 116.763C147.976 117.042 148.381 117.432 148.679 117.933C148.977 118.42 149.126 118.95 149.126 119.521C149.126 120.105 148.977 120.649 148.679 121.15C148.381 121.651 147.976 122.048 147.465 122.341C146.969 122.633 146.429 122.779 145.847 122.779Z" fill="white"/>
<rect x="44" y="209" width="92" height="12" rx="6" fill="#E0DDE8"/>
<rect x="44" y="241" width="143" height="12" rx="6" fill="#E0DDE8"/>
<rect x="44" y="273" width="206" height="12" rx="6" fill="#E0DDE8"/>
<rect x="44" y="305" width="206" height="12" rx="6" fill="#E0DDE8"/>
<rect x="44" y="337" width="206" height="12" rx="6" fill="#E0DDE8"/>
</g>
<defs>
<filter id="filter0_d_1357_28445" x="0" y="0" width="294" height="393" filterUnits="userSpaceOnUse" color-interpolation-filters="sRGB">
<feFlood flood-opacity="0" result="BackgroundImageFix"/>
<feColorMatrix in="SourceAlpha" type="matrix" values="0 0 0 0 0 0 0 0 0 0 0 0 0 0 0 0 0 0 127 0" result="hardAlpha"/>
<feOffset dy="4"/>
<feGaussianBlur stdDeviation="2"/>
<feComposite in2="hardAlpha" operator="out"/>
<feColorMatrix type="matrix" values="0 0 0 0 0 0 0 0 0 0 0 0 0 0 0 0 0 0 0.25 0"/>
<feBlend mode="normal" in2="BackgroundImageFix" result="effect1_dropShadow_1357_28445"/>
<feBlend mode="normal" in="SourceGraphic" in2="effect1_dropShadow_1357_28445" result="shape"/>
</filter>
</defs>
</svg>
