<svg width="32" height="44" viewBox="0 0 32 32" fill="none" xmlns="http://www.w3.org/2000/svg">
<path d="M12 24V25C12 26.0609 12.4214 27.0783 13.1716 27.8284C13.9217 28.5786 14.9391 29 16 29C17.0609 29 18.0783 28.5786 18.8284 27.8284C19.5786 27.0783 20 26.0609 20 25V24" fill="#764AF1"/>
<path d="M7.0249 13.0001C7.02323 11.8146 7.25613 10.6405 7.71018 9.54534C8.16423 8.45021 8.83046 7.45573 9.67049 6.61918C10.5105 5.78263 11.5078 5.12054 12.6048 4.67105C13.7018 4.22156 14.8769 3.99354 16.0624 4.00014C21.0124 4.03764 24.9749 8.15014 24.9749 13.1126V14.0001C24.9749 18.4751 25.9124 21.0751 26.7374 22.5001C26.825 22.6519 26.8712 22.824 26.8714 22.9993C26.8715 23.1745 26.8256 23.3467 26.7383 23.4986C26.6509 23.6505 26.5252 23.7768 26.3737 23.8648C26.2221 23.9529 26.0501 23.9995 25.8749 24.0001H6.1249C5.94966 23.9995 5.77766 23.9529 5.62613 23.8648C5.4746 23.7768 5.34886 23.6505 5.26151 23.4986C5.17416 23.3467 5.12826 23.1745 5.12842 22.9993C5.12857 22.824 5.17478 22.6519 5.2624 22.5001C6.0874 21.0751 7.0249 18.4751 7.0249 14.0001V13.0001Z" fill="#C3ADFF"/>
</svg>
