<svg width="56" height="56" viewBox="0 0 56 56" fill="none" xmlns="http://www.w3.org/2000/svg">
<path d="M38 13C38 22 28 29 28 29C28 29 18 22 18 13C18 10.3478 19.0536 7.8043 20.9289 5.92893C22.8043 4.05357 25.3478 3 28 3C30.6522 3 33.1957 4.05357 35.0711 5.92893C36.9464 7.8043 38 10.3478 38 13V13Z" fill="#827397" stroke="#827397" stroke-width="2" stroke-linecap="round" stroke-linejoin="round"/>
<path d="M28 17C30.2091 17 32 15.2091 32 13C32 10.7909 30.2091 9 28 9C25.7909 9 24 10.7909 24 13C24 15.2091 25.7909 17 28 17Z" fill="white"/>
<path d="M10.8116 52.1348H9.75887V47.6641H10.8116V52.1348ZM15.8292 48.2109H4.75497V47.3086H15.8292V48.2109ZM10.7022 42.3594C10.7022 43.0339 10.4766 43.6514 10.0255 44.2119C9.5743 44.7725 8.9773 45.2396 8.23446 45.6133C7.49618 45.9824 6.70093 46.2331 5.84872 46.3652L5.45223 45.5039C6.1814 45.4036 6.87639 45.1986 7.5372 44.8887C8.198 44.5788 8.73348 44.2028 9.14364 43.7607C9.5538 43.3187 9.75887 42.8516 9.75887 42.3594V42.0312H10.7022V42.3594ZM10.8253 42.3594C10.8253 42.847 11.0281 43.3141 11.4337 43.7607C11.8393 44.2028 12.3725 44.5788 13.0333 44.8887C13.6941 45.1986 14.3891 45.4036 15.1182 45.5039L14.7218 46.3652C13.8696 46.2376 13.0743 45.9847 12.336 45.6064C11.6023 45.2282 11.0121 44.7588 10.5655 44.1982C10.1189 43.6331 9.89559 43.0202 9.89559 42.3594V42.0312H10.8253V42.3594ZM14.7628 42.3457H5.83505V41.4707H14.7628V42.3457ZM10.8116 41.7715H9.75887V39.9531H10.8116V41.7715ZM20.5251 42.8652C20.5205 43.5807 20.3747 44.2507 20.0876 44.875C19.805 45.4948 19.4063 46.0348 18.8913 46.4951C18.3809 46.9508 17.7907 47.2949 17.1208 47.5273L16.5876 46.6934C17.1846 46.4928 17.7132 46.2012 18.1735 45.8184C18.6384 45.4355 18.9984 44.9889 19.2536 44.4785C19.5088 43.9681 19.6364 43.4303 19.6364 42.8652V42.2363H20.5251V42.8652ZM20.6892 42.8652C20.6892 43.3984 20.8213 43.9043 21.0856 44.3828C21.35 44.8568 21.7145 45.276 22.1794 45.6406C22.6442 46.0007 23.1774 46.2741 23.779 46.4609L23.2458 47.3223C22.5713 47.1035 21.9766 46.7754 21.4616 46.3379C20.9466 45.9004 20.5433 45.3831 20.2517 44.7861C19.96 44.1891 19.8142 43.5488 19.8142 42.8652V42.2363H20.6892V42.8652ZM23.4372 42.4688H16.8884V41.5938H23.4372V42.4688ZM20.7165 41.9355H19.6364V40.0352H20.7165V41.9355ZM26.1169 44.6016H23.0134V43.7129H26.1169V44.6016ZM26.6228 49.0449H25.5427V39.9668H26.6228V49.0449ZM26.9645 51.8477H18.8161V50.9453H26.9645V51.8477ZM19.8962 51.4102H18.8161V48.2246H19.8962V51.4102ZM34.2171 41.7441C34.2171 42.5872 33.9801 43.3734 33.5062 44.1025C33.0322 44.8271 32.417 45.4401 31.6605 45.9414C30.9085 46.4427 30.1201 46.7891 29.2952 46.9805L28.803 46.0781C29.5185 45.9414 30.2203 45.6589 30.9085 45.2305C31.6012 44.8021 32.1686 44.2803 32.6106 43.665C33.0527 43.0498 33.2737 42.4095 33.2737 41.7441V40.8145H34.2171V41.7441ZM34.3948 41.7441C34.3948 42.4095 34.6181 43.0498 35.0648 43.665C35.5114 44.2803 36.081 44.8044 36.7737 45.2373C37.471 45.6657 38.1774 45.946 38.8929 46.0781L38.4007 46.9805C37.5804 46.7891 36.792 46.4427 36.0355 45.9414C35.2789 45.4401 34.6637 44.8271 34.1898 44.1025C33.7158 43.3734 33.4788 42.5872 33.4788 41.7441V40.8145H34.3948V41.7441ZM39.4671 50.4531H28.3382V49.5645H39.4671V50.4531ZM47.0751 41.9082H40.5126V41.0195H47.0751V41.9082ZM40.1708 45.668C41.6246 45.6634 42.9644 45.6383 44.1903 45.5928C45.4208 45.5426 46.5738 45.4401 47.6493 45.2852L47.7314 46.0918C46.6103 46.2832 45.4185 46.4131 44.1562 46.4814C42.8984 46.5498 41.6109 46.584 40.2939 46.584L40.1708 45.668ZM42.7958 45.9551H41.7431V41.6484H42.7958V45.9551ZM45.831 45.9551H44.7782V41.6484H45.831V45.9551ZM49.6318 48.1289H48.5653V39.9531H49.6318V48.1289ZM51.4638 44.2461H49.331V43.3438H51.4638V44.2461ZM46.3505 47.8145C46.3459 48.5436 46.1318 49.2021 45.7079 49.79C45.2887 50.3779 44.7281 50.8633 44.0263 51.2461C43.3245 51.6289 42.5588 51.8978 41.7294 52.0527L41.3056 51.2051C42.0347 51.082 42.7138 50.8633 43.3427 50.5488C43.9716 50.2298 44.4729 49.8356 44.8466 49.3662C45.2203 48.8968 45.4071 48.3796 45.4071 47.8145V47.5273H46.3505V47.8145ZM46.4735 47.8145C46.4735 48.3796 46.6627 48.8968 47.0409 49.3662C47.4192 49.8356 47.9205 50.2298 48.5448 50.5488C49.1737 50.8633 49.8551 51.082 50.5888 51.2051L50.1513 52.0527C49.3219 51.8978 48.5585 51.6289 47.8612 51.2461C47.164 50.8633 46.6057 50.3779 46.1864 49.79C45.7717 49.2021 45.5666 48.5436 45.5712 47.8145V47.5273H46.4735V47.8145Z" fill="#6B6B6B"/>
</svg>
