<svg width="32" height="56" viewBox="0 0 32 56" fill="none" xmlns="http://www.w3.org/2000/svg">
<path d="M8.00514 14.2507C4.55208 15.137 2 18.2705 2 22V24H30V22C30 16.4772 25.5228 12 20 12C19.8864 12 19.7733 12.0019 19.6606 12.0057C18.8385 9.67232 16.6145 8 14 8C10.6863 8 8 10.6863 8 14C8 14.084 8.00173 14.1676 8.00514 14.2507Z" fill="#764AF1"/>
<path d="M20.1631 51.9434H11.7959V48.4707H20.1631V51.9434ZM12.8623 51.1094H19.1104V49.3047H12.8623V51.1094ZM20.874 41.8125H11.0166V40.9785H20.874V41.8125ZM15.9795 42.3047C17.251 42.3138 18.224 42.4642 18.8984 42.7559C19.5775 43.043 19.917 43.4668 19.917 44.0273C19.917 44.5924 19.5775 45.0208 18.8984 45.3125C18.224 45.6042 17.251 45.75 15.9795 45.75C14.708 45.75 13.7305 45.6042 13.0469 45.3125C12.3678 45.0208 12.0283 44.5924 12.0283 44.0273C12.0283 43.4668 12.3678 43.043 13.0469 42.7559C13.7305 42.4642 14.708 42.3138 15.9795 42.3047ZM15.9795 43.0566C15.3825 43.0612 14.8743 43.1022 14.4551 43.1797C14.0404 43.2526 13.7236 43.3597 13.5049 43.501C13.2861 43.6423 13.1768 43.8177 13.1768 44.0273C13.1768 44.2324 13.2861 44.4079 13.5049 44.5537C13.7236 44.695 14.0426 44.8044 14.4619 44.8818C14.8812 44.9593 15.387 44.998 15.9795 44.998C16.5719 44.998 17.0778 44.9593 17.4971 44.8818C17.9163 44.8044 18.2354 44.695 18.4541 44.5537C18.6729 44.4079 18.7822 44.2324 18.7822 44.0273C18.7822 43.8177 18.6729 43.6423 18.4541 43.501C18.2354 43.3597 17.9163 43.2526 17.4971 43.1797C17.0824 43.1022 16.5765 43.0612 15.9795 43.0566ZM16.5127 41.5254H15.4463V39.7754H16.5127V41.5254ZM21.5166 47.541H10.4424V46.6797H21.5166V47.541ZM16.5127 47.1719H15.4463V45.4766H16.5127V47.1719Z" fill="#6B6B6B"/>
</svg>
