<svg width="28" height="28" viewBox="0 0 28 28" fill="none" xmlns="http://www.w3.org/2000/svg">
<path d="M19.2717 10.9043H24.5217V5.6543" stroke="#827397" stroke-width="2" stroke-linecap="round" stroke-linejoin="round"/>
<path d="M7.19702 7.19781C8.08995 6.30357 9.15042 5.59415 10.3178 5.11012C11.4851 4.62609 12.7364 4.37695 14.0001 4.37695C15.2639 4.37695 16.5152 4.62609 17.6825 5.11012C18.8499 5.59415 19.9103 6.30357 20.8033 7.19781L24.522 10.9056" stroke="#827397" stroke-width="2" stroke-linecap="round" stroke-linejoin="round"/>
<path d="M8.72827 17.0957H3.47827V22.3457" stroke="#827397" stroke-width="2" stroke-linecap="round" stroke-linejoin="round"/>
<path d="M20.8033 20.8035C19.9103 21.6977 18.8499 22.4072 17.6825 22.8912C16.5152 23.3752 15.2639 23.6244 14.0001 23.6244C12.7364 23.6244 11.4851 23.3752 10.3178 22.8912C9.15042 22.4072 8.08995 21.6977 7.19702 20.8035L3.47827 17.0957" stroke="#827397" stroke-width="2" stroke-linecap="round" stroke-linejoin="round"/>
</svg>
