<svg width="36" height="36" viewBox="0 0 36 36" fill="none" xmlns="http://www.w3.org/2000/svg">
<path d="M13.0359 30.3739H6.75001C6.45164 30.3739 6.16549 30.2554 5.95451 30.0444C5.74353 29.8334 5.62501 29.5473 5.62501 29.2489V22.963C5.62449 22.8169 5.6528 22.6721 5.7083 22.537C5.7638 22.4019 5.8454 22.279 5.94844 22.1755L22.8234 5.30046C22.9281 5.19417 23.0529 5.10975 23.1905 5.05214C23.3281 4.99452 23.4758 4.96484 23.625 4.96484C23.7742 4.96484 23.9219 4.99452 24.0595 5.05214C24.1971 5.10975 24.3219 5.19417 24.4266 5.30046L30.6984 11.5723C30.8047 11.677 30.8892 11.8018 30.9468 11.9394C31.0044 12.077 31.0341 12.2247 31.0341 12.3739C31.0341 12.5231 31.0044 12.6708 30.9468 12.8084C30.8892 12.946 30.8047 13.0708 30.6984 13.1755L13.8234 30.0505C13.7199 30.1535 13.597 30.2351 13.4619 30.2906C13.3268 30.3461 13.182 30.3744 13.0359 30.3739Z" stroke="white" stroke-width="2" stroke-linecap="round" stroke-linejoin="round"/>
<path d="M19.125 9L27 16.875" stroke="white" stroke-width="2" stroke-linecap="round" stroke-linejoin="round"/>
</svg>
