<svg width="32" height="32" viewBox="0 0 32 32" fill="none" xmlns="http://www.w3.org/2000/svg">
<path d="M19.0027 14.3869C18.5581 15.8413 17.6662 17.1206 16.4522 18.0453C18.8239 19.0916 20.7467 20.9379 21.8803 23.2575C21.9705 23.4419 22.0109 23.6464 21.9975 23.8509C21.9841 24.0555 21.9175 24.253 21.804 24.4242C21.6985 24.5999 21.5488 24.7452 21.3698 24.8462C21.1907 24.9471 20.9883 25.0001 20.7825 25H3.21754C3.01167 25.0001 2.80931 24.9471 2.63024 24.8462C2.45117 24.7452 2.30154 24.5999 2.19596 24.4242C2.08254 24.253 2.01587 24.0555 2.0025 23.8509C1.98913 23.6464 2.02953 23.4419 2.11973 23.2575C3.25334 20.9379 5.1761 19.0916 7.54778 18.0453C6.33382 17.1206 5.44188 15.8413 4.99728 14.3869C4.55269 12.9326 4.57779 11.3764 5.06905 9.93697C5.56031 8.49754 6.49305 7.24723 7.73621 6.36172C8.97937 5.47621 10.4705 5 12 5C13.5295 5 15.0206 5.47621 16.2638 6.36172C17.507 7.24723 18.4397 8.49754 18.931 9.93697C19.4222 11.3764 19.4473 12.9326 19.0027 14.3869Z" fill="#C3ADFF"/>
<path d="M23 18H29" stroke="#764AF1" stroke-width="2" stroke-linecap="round" stroke-linejoin="round"/>
<path d="M26 15V21" stroke="#764AF1" stroke-width="2" stroke-linecap="round" stroke-linejoin="round"/>
</svg>
