<svg width="234" height="96" viewBox="0 0 234 96" fill="none" xmlns="http://www.w3.org/2000/svg">
<path d="M128 13.75H106L117 22L128 13.75Z" fill="#9B7AFF"/>
<path d="M117 22L106.55 14.1625C106.38 14.0335 106.242 13.8672 106.147 13.6765C106.052 13.4858 106.001 13.2757 106 13.0625V6.875C106 6.51033 106.145 6.16059 106.403 5.90273C106.661 5.64487 107.01 5.5 107.375 5.5H126.625C126.99 5.5 127.339 5.64487 127.597 5.90273C127.855 6.16059 128 6.51033 128 6.875V12.9937C127.999 13.207 127.948 13.4171 127.853 13.6078C127.758 13.7985 127.62 13.9648 127.45 14.0938L117 22Z" stroke="white" stroke-width="2" stroke-linecap="round" stroke-linejoin="round"/>
<path d="M117 22L106.55 29.8375C106.38 29.9665 106.242 30.1328 106.147 30.3235C106.052 30.5142 106.001 30.7243 106 30.9375V37.125C106 37.4897 106.145 37.8394 106.403 38.0973C106.661 38.3551 107.01 38.5 107.375 38.5H126.625C126.99 38.5 127.339 38.3551 127.597 38.0973C127.855 37.8394 128 37.4897 128 37.125V31.0062C127.999 30.793 127.948 30.5829 127.853 30.3922C127.758 30.2015 127.62 30.0352 127.45 29.9062L117 22Z" stroke="white" stroke-width="2" stroke-linecap="round" stroke-linejoin="round"/>
<path d="M19.0703 88.9805H16.9258V67.9805H19.0703V88.9805ZM17.6992 78.0352H13.7735V76.2188H17.6992V78.0352ZM14.3477 87.9492H12.2383V68.3789H14.3477V87.9492ZM9.85941 83.4609H1.71487V70.3477H9.85941V83.4609ZM3.80081 81.6914H7.77347V72.1172H3.80081V81.6914ZM28.6439 72.3516C28.6361 73.5859 28.39 74.7383 27.9056 75.8086C27.4212 76.8711 26.7259 77.7969 25.8197 78.5859C24.9212 79.375 23.8627 79.9609 22.6439 80.3438L21.5541 78.5859C22.6166 78.2656 23.5423 77.7891 24.3314 77.1562C25.1283 76.5156 25.7377 75.7812 26.1595 74.9531C26.5892 74.125 26.8041 73.2578 26.8041 72.3516V71.4727H28.6439V72.3516ZM29.0189 72.3516C29.0189 73.1953 29.2337 74 29.6634 74.7656C30.1009 75.5234 30.7181 76.1953 31.515 76.7812C32.3197 77.3672 33.2611 77.8086 34.3392 78.1055L33.2962 79.8164C32.0619 79.4727 30.9837 78.9375 30.0619 78.2109C29.1478 77.4844 28.4408 76.6172 27.9408 75.6094C27.4486 74.6016 27.2064 73.5156 27.2142 72.3516V71.4727H29.0189V72.3516ZM33.6712 72.2344H22.1517V70.4648H33.6712V72.2344ZM29.0423 71.2617H26.8041V67.9922H29.0423V71.2617ZM38.6283 80.8008H36.4134V68.0039H38.6283V80.8008ZM31.5736 81.2227C33.0345 81.2148 34.3002 81.3633 35.3705 81.668C36.4486 81.9648 37.2728 82.4062 37.8431 82.9922C38.4134 83.5703 38.6986 84.2656 38.6986 85.0781C38.6986 85.8906 38.4134 86.5859 37.8431 87.1641C37.2728 87.75 36.4525 88.1953 35.3822 88.5C34.3119 88.8047 33.0423 88.957 31.5736 88.957C30.097 88.957 28.8236 88.8047 27.7533 88.5C26.6908 88.1953 25.8705 87.75 25.2923 87.1641C24.722 86.5859 24.4369 85.8906 24.4369 85.0781C24.4369 84.2656 24.722 83.5703 25.2923 82.9922C25.8705 82.4062 26.6908 81.9648 27.7533 81.668C28.8236 81.3633 30.097 81.2148 31.5736 81.2227ZM31.5736 82.957C30.5423 82.957 29.6595 83.0391 28.9252 83.2031C28.1986 83.3672 27.64 83.6094 27.2494 83.9297C26.8666 84.25 26.6752 84.6328 26.6752 85.0781C26.6752 85.5312 26.8666 85.918 27.2494 86.2383C27.6322 86.5586 28.1869 86.8047 28.9134 86.9766C29.6478 87.1406 30.5345 87.2227 31.5736 87.2227C32.6048 87.2227 33.4916 87.1406 34.2337 86.9766C34.9759 86.8047 35.5384 86.5586 35.9212 86.2383C36.3119 85.9102 36.5072 85.5234 36.5072 85.0781C36.5072 84.6328 36.3119 84.25 35.9212 83.9297C35.5384 83.6094 34.9759 83.3672 34.2337 83.2031C33.4916 83.0391 32.6048 82.957 31.5736 82.957ZM48.2839 71.1562C48.2839 72.5234 48.0534 73.8008 47.5925 74.9883C47.1315 76.168 46.4636 77.1953 45.5886 78.0703C44.7136 78.9375 43.6745 79.5938 42.4714 80.0391L41.2761 78.2695C42.3464 77.8867 43.2682 77.3359 44.0417 76.6172C44.8229 75.8906 45.4206 75.0625 45.8347 74.1328C46.2487 73.2031 46.4557 72.2109 46.4557 71.1562V69.082H48.2839V71.1562ZM48.6589 71.3555C48.6589 72.2695 48.8659 73.1484 49.28 73.9922C49.694 74.8359 50.2839 75.582 51.0495 76.2305C51.8151 76.8711 52.7136 77.3633 53.7448 77.707L52.5378 79.4414C51.3815 79.0352 50.3776 78.4297 49.5261 77.625C48.6745 76.8203 48.0143 75.8828 47.5456 74.8125C47.0847 73.7344 46.8542 72.582 46.8542 71.3555V69.082H48.6589V71.3555ZM57.9284 80.6484H55.7136V67.9805H57.9284V80.6484ZM60.987 75.1289H57.3073V73.2656H60.987V75.1289ZM51.1432 81.1523C52.5807 81.1523 53.8229 81.3086 54.8698 81.6211C55.9167 81.9258 56.7175 82.3711 57.2722 82.957C57.8347 83.5352 58.1159 84.2305 58.1159 85.043C58.1159 85.8711 57.8347 86.5742 57.2722 87.1523C56.7175 87.7383 55.9167 88.1836 54.8698 88.4883C53.8229 88.8008 52.5807 88.957 51.1432 88.957C49.6901 88.957 48.4362 88.8008 47.3815 88.4883C46.3268 88.1836 45.5143 87.7383 44.944 87.1523C44.3815 86.5664 44.1003 85.8633 44.1003 85.043C44.1003 84.2305 44.3815 83.5352 44.944 82.957C45.5143 82.3711 46.3268 81.9258 47.3815 81.6211C48.444 81.3086 49.6979 81.1523 51.1432 81.1523ZM51.1432 82.9219C50.1432 82.9219 49.28 83.0078 48.5534 83.1797C47.8347 83.3438 47.2839 83.5859 46.9011 83.9062C46.5182 84.2266 46.3307 84.6055 46.3386 85.043C46.3307 85.4961 46.5182 85.8867 46.9011 86.2148C47.2839 86.5352 47.8307 86.7812 48.5417 86.9531C49.2604 87.1172 50.1276 87.1992 51.1432 87.1992C52.1511 87.1992 53.0143 87.1172 53.7331 86.9531C54.4597 86.7812 55.0104 86.5352 55.3854 86.2148C55.7604 85.8867 55.9479 85.4961 55.9479 85.043C55.9479 84.6055 55.7565 84.2266 55.3737 83.9062C54.9987 83.5781 54.4479 83.332 53.7214 83.168C53.0026 83.0039 52.1432 82.9219 51.1432 82.9219ZM79.666 88.9805H77.5567V67.9805H79.666V88.9805ZM78.0957 78.1406H74.1699V76.3242H78.0957V78.1406ZM74.8145 87.9258H72.7754V68.4141H74.8145V87.9258ZM63.752 82.0547C65.4004 82.0547 66.7871 82.0195 67.9121 81.9492C69.0371 81.8711 70.1817 81.7188 71.3457 81.4922L71.5215 83.332C70.3496 83.5742 69.1895 83.7344 68.041 83.8125C66.9004 83.8828 65.4707 83.9258 63.752 83.9414H62.3574V82.0547H63.752ZM70.2207 72.3281H64.5723V82.9453H62.3574V70.5117H70.2207V72.3281ZM101.052 79.3359H81.8333V77.625H101.052V79.3359ZM98.6849 85.4297H86.3568V87.7031H84.1302V83.9531H96.4818V82.4062H84.1068V80.7891H98.6849V85.4297ZM99.3412 88.7344H84.1302V87.1641H99.3412V88.7344ZM98.6263 73.0781H86.5091V75.1992H84.306V71.6016H96.3997V70.1016H84.2474V68.5312H98.6263V73.0781ZM99.0013 76.2422H84.306V74.6836H99.0013V76.2422ZM114.363 72.3398C114.363 73.5195 114.121 74.6172 113.637 75.6328C113.16 76.6484 112.473 77.5352 111.574 78.293C110.684 79.043 109.633 79.6055 108.422 79.9805L107.344 78.2344C108.406 77.9219 109.332 77.4688 110.121 76.875C110.91 76.2812 111.512 75.5938 111.926 74.8125C112.348 74.0312 112.559 73.207 112.559 72.3398V71.4492H114.363V72.3398ZM114.75 72.3398C114.75 73.1289 114.957 73.8906 115.371 74.625C115.785 75.3516 116.375 76 117.141 76.5703C117.914 77.1406 118.824 77.5742 119.871 77.8711L118.852 79.5703C117.641 79.2266 116.59 78.6992 115.699 77.9883C114.809 77.2695 114.125 76.4258 113.648 75.457C113.18 74.4883 112.945 73.4492 112.945 72.3398V71.4492H114.75V72.3398ZM119.332 72.0938H107.988V70.3008H119.332V72.0938ZM114.797 71.0859H112.559V67.8867H114.797V71.0859ZM123.902 80.1094H121.688V67.9805H123.902V80.1094ZM126.961 74.8711H123.281V73.0195H126.961V74.8711ZM117.961 82.4297C117.961 83.5 117.633 84.4844 116.977 85.3828C116.32 86.2812 115.406 87.0312 114.234 87.6328C113.062 88.2422 111.742 88.6602 110.273 88.8867L109.441 87.1992C110.707 87.0117 111.844 86.6836 112.852 86.2148C113.867 85.7383 114.66 85.1719 115.23 84.5156C115.809 83.8594 116.098 83.1641 116.098 82.4297V81.8672H117.961V82.4297ZM118.43 82.4297C118.43 83.1484 118.719 83.8359 119.297 84.4922C119.875 85.1484 120.668 85.7188 121.676 86.2031C122.691 86.6875 123.828 87.0234 125.086 87.2109L124.277 88.9219C122.801 88.6953 121.473 88.2734 120.293 87.6562C119.113 87.0391 118.188 86.2812 117.516 85.3828C116.844 84.4766 116.508 83.4922 116.508 82.4297V81.8672H118.43V82.4297ZM124.242 82.9453H110.297V81.1641H124.242V82.9453ZM144.632 75.9023H130.136V74.1445H144.632V75.9023ZM146.812 80.3438H127.593V78.5625H146.812V80.3438ZM132.351 75.0352H130.136V68.7539H132.351V75.0352ZM144.749 88.4883H129.995V86.6602H144.749V88.4883ZM132.222 87.1875H129.995V82.3477H132.222V87.1875ZM163.814 82.1602H161.635V78.4805H163.814V82.1602ZM172.311 79.5234H153.162V77.7188H172.311V79.5234ZM162.725 81.5039C164.232 81.5117 165.529 81.6562 166.615 81.9375C167.701 82.2188 168.529 82.6445 169.1 83.2148C169.678 83.7773 169.971 84.457 169.979 85.2539C169.971 86.043 169.678 86.7109 169.1 87.2578C168.529 87.8125 167.697 88.2344 166.604 88.5234C165.518 88.8125 164.225 88.957 162.725 88.957C161.201 88.957 159.893 88.8125 158.799 88.5234C157.713 88.2344 156.881 87.8125 156.303 87.2578C155.725 86.7109 155.436 86.043 155.436 85.2539C155.436 84.457 155.725 83.7773 156.303 83.2148C156.881 82.6445 157.713 82.2188 158.799 81.9375C159.893 81.6562 161.201 81.5117 162.725 81.5039ZM162.725 83.2148C161.654 83.2227 160.744 83.3047 159.994 83.4609C159.244 83.6172 158.67 83.8477 158.271 84.1523C157.881 84.4492 157.689 84.8164 157.697 85.2539C157.689 85.6758 157.881 86.0391 158.271 86.3438C158.67 86.6406 159.244 86.8633 159.994 87.0117C160.752 87.168 161.662 87.2461 162.725 87.2461C163.771 87.2461 164.67 87.168 165.42 87.0117C166.178 86.8555 166.752 86.6289 167.143 86.332C167.541 86.0352 167.74 85.6758 167.74 85.2539C167.74 84.8242 167.545 84.457 167.154 84.1523C166.764 83.8477 166.193 83.6172 165.443 83.4609C164.693 83.3047 163.787 83.2227 162.725 83.2148ZM163.229 70.3945C163.221 71.4727 162.857 72.4531 162.139 73.3359C161.428 74.2109 160.439 74.9297 159.174 75.4922C157.916 76.0547 156.502 76.4258 154.932 76.6055L154.17 74.8477C155.482 74.7148 156.682 74.4336 157.768 74.0039C158.854 73.5742 159.705 73.043 160.322 72.4102C160.939 71.7773 161.248 71.1055 161.248 70.3945V69.7852H163.229V70.3945ZM164.213 70.3945C164.213 71.1133 164.518 71.7891 165.127 72.4219C165.744 73.0469 166.596 73.5742 167.682 74.0039C168.775 74.4336 169.99 74.7148 171.326 74.8477L170.518 76.6055C168.955 76.4258 167.545 76.0547 166.287 75.4922C165.029 74.9297 164.037 74.2109 163.311 73.3359C162.584 72.4531 162.221 71.4727 162.221 70.3945V69.7852H164.213V70.3945ZM170.6 70.7227H154.908V68.9414H170.6V70.7227ZM190.79 79.2656H188.576V67.9805H190.79V79.2656ZM179.247 82.6172H188.587V80.2734H190.79V88.7227H177.044V80.2734H179.247V82.6172ZM188.587 86.918V84.375H179.247V86.918H188.587ZM179.4 68.9648C180.462 68.957 181.415 69.1602 182.259 69.5742C183.111 69.9805 183.779 70.5547 184.263 71.2969C184.747 72.0391 184.99 72.8867 184.99 73.8398C184.99 74.7773 184.747 75.6133 184.263 76.3477C183.779 77.082 183.111 77.6562 182.259 78.0703C181.415 78.4844 180.462 78.6914 179.4 78.6914C178.337 78.6914 177.38 78.4844 176.529 78.0703C175.685 77.6562 175.021 77.082 174.536 76.3477C174.052 75.6133 173.81 74.7773 173.81 73.8398C173.81 72.8867 174.052 72.0391 174.536 71.2969C175.021 70.5547 175.685 69.9805 176.529 69.5742C177.38 69.1602 178.337 68.957 179.4 68.9648ZM179.4 70.8281C178.736 70.8281 178.146 70.9531 177.63 71.2031C177.115 71.4531 176.708 71.8086 176.411 72.2695C176.122 72.7227 175.982 73.2461 175.99 73.8398C175.982 74.4336 176.122 74.957 176.411 75.4102C176.708 75.8633 177.115 76.2188 177.63 76.4766C178.146 76.7344 178.736 76.8633 179.4 76.8633C180.056 76.8633 180.642 76.7344 181.158 76.4766C181.673 76.2188 182.076 75.8633 182.365 75.4102C182.654 74.9492 182.798 74.4258 182.798 73.8398C182.798 73.2539 182.654 72.7305 182.365 72.2695C182.076 71.8086 181.673 71.4531 181.158 71.2031C180.642 70.9531 180.056 70.8281 179.4 70.8281ZM211.016 88.9805H208.813V67.9805H211.016V88.9805ZM197.071 83.0508H194.88V70.0312H197.071V83.0508ZM196.637 81.7383C198.356 81.7383 200.048 81.6641 201.712 81.5156C203.383 81.3594 205.063 81.1055 206.751 80.7539L207.044 82.6289C205.27 82.9961 203.532 83.2578 201.829 83.4141C200.133 83.5703 198.403 83.6484 196.637 83.6484H194.88V81.7383H196.637ZM230.164 89.0391H227.949V67.9805H230.164V89.0391ZM233.551 77.9648H229.66V76.125H233.551V77.9648ZM216.395 81.9727C218.402 81.9648 220.141 81.9102 221.609 81.8086C223.078 81.707 224.57 81.5195 226.086 81.2461L226.355 83.1445C224.809 83.418 223.289 83.6016 221.797 83.6953C220.312 83.7812 218.512 83.8242 216.395 83.8242H214.695V81.9727H216.395ZM224.516 71.8242H216.91V82.8398H214.695V69.9961H224.516V71.8242Z" fill="white"/>
</svg>
