<svg width="277" height="36" viewBox="0 0 277 36" fill="none" xmlns="http://www.w3.org/2000/svg">
<path d="M30.6292 15.6881C31.9883 16.2774 33.1692 17.2127 34.0542 18.4006C34.1656 18.5492 34.2334 18.7259 34.2501 18.9108C34.2668 19.0958 34.2316 19.2817 34.1486 19.4478C34.0655 19.6139 33.9379 19.7536 33.7799 19.8513C33.6219 19.9489 33.4399 20.0006 33.2542 20.0006H27.7542C27.6224 20.0023 27.4916 19.9776 27.3695 19.9279C27.2474 19.8783 27.1365 19.8047 27.0433 19.7115C26.9501 19.6183 26.8765 19.5074 26.8269 19.3853C26.7772 19.2632 26.7525 19.1324 26.7542 19.0006C26.7582 18.0928 26.6016 17.1914 26.2917 16.3381C25.6658 14.5652 24.4355 13.0694 22.8167 12.1131C22.6401 12.0072 22.5001 11.8499 22.4152 11.6623C22.3303 11.4747 22.3047 11.2657 22.3417 11.0631C22.49 10.2854 22.8209 9.55403 23.3072 8.9292C23.7935 8.30437 24.4211 7.80395 25.1386 7.46912C25.8561 7.13429 26.6428 6.97463 27.434 7.00327C28.2252 7.03192 28.9983 7.24805 29.6897 7.63388C30.3811 8.01971 30.9709 8.56421 31.4107 9.22257C31.8505 9.88092 32.1277 10.6343 32.2194 11.4207C32.3112 12.2071 32.2148 13.0041 31.9384 13.746C31.6619 14.4879 31.2132 15.1535 30.6292 15.6881Z" fill="#827397"/>
<path d="M5.625 15.6881C4.26589 16.2774 3.08499 17.2127 2.2 18.4006C2.08857 18.5492 2.02072 18.7259 2.00404 18.9108C1.98736 19.0958 2.02252 19.2817 2.10557 19.4478C2.18863 19.6139 2.31629 19.7536 2.47427 19.8513C2.63225 19.9489 2.81429 20.0006 3 20.0006H8.5C8.63179 20.0023 8.76258 19.9776 8.88466 19.9279C9.00675 19.8783 9.11765 19.8047 9.21085 19.7115C9.30404 19.6183 9.37764 19.5074 9.4273 19.3853C9.47696 19.2632 9.50168 19.1324 9.5 19.0006C9.49601 18.0928 9.65258 17.1914 9.9625 16.3381C10.5884 14.5652 11.8187 13.0694 13.4375 12.1131C13.614 12.0072 13.7541 11.8499 13.839 11.6623C13.9238 11.4747 13.9495 11.2657 13.9125 11.0631C13.7641 10.2854 13.4332 9.55403 12.947 8.9292C12.4607 8.30437 11.833 7.80395 11.1156 7.46912C10.3981 7.13429 9.61139 6.97463 8.82017 7.00327C8.02894 7.03192 7.25583 7.24805 6.56446 7.63388C5.87309 8.01971 5.28323 8.56421 4.84343 9.22257C4.40363 9.88092 4.12646 10.6343 4.03473 11.4207C3.943 12.2071 4.03934 13.0041 4.31581 13.746C4.59229 14.4879 5.04099 15.1535 5.625 15.6881Z" fill="#827397"/>
<path d="M23.8678 20.744C23.5033 21.9438 22.7721 22.9993 21.7769 23.7621C23.7212 24.6253 25.2975 26.1485 26.2269 28.0621C26.3008 28.2142 26.3339 28.3829 26.323 28.5516C26.312 28.7204 26.2574 28.8834 26.1644 29.0246C26.0778 29.1695 25.9551 29.2894 25.8083 29.3727C25.6615 29.4559 25.4956 29.4997 25.3269 29.4996H10.9269C10.7581 29.4997 10.5922 29.4559 10.4454 29.3727C10.2986 29.2894 10.1759 29.1695 10.0894 29.0246C9.99638 28.8834 9.94172 28.7204 9.93076 28.5516C9.9198 28.3829 9.95292 28.2142 10.0269 28.0621C10.9562 26.1485 12.5325 24.6253 14.4769 23.7621C13.4816 22.9993 12.7504 21.9438 12.3859 20.744C12.0214 19.5442 12.042 18.2604 12.4448 17.0729C12.8475 15.8854 13.6122 14.8539 14.6313 14.1234C15.6505 13.3929 16.8729 13 18.1269 13C19.3808 13 20.6032 13.3929 21.6224 14.1234C22.6416 14.8539 23.4062 15.8854 23.809 17.0729C24.2117 18.2604 24.2323 19.5442 23.8678 20.744Z" fill="#C3ADFF"/>
<path d="M62.8438 28.9805H60.6992V7.98047H62.8438V28.9805ZM61.4727 18.0352H57.5469V16.2188H61.4727V18.0352ZM58.1211 27.9492H56.0117V8.37891H58.1211V27.9492ZM53.6328 23.4609H45.4883V10.3477H53.6328V23.4609ZM47.5742 21.6914H51.5469V12.1172H47.5742V21.6914ZM72.4173 12.3516C72.4095 13.5859 72.1634 14.7383 71.679 15.8086C71.1947 16.8711 70.4993 17.7969 69.5931 18.5859C68.6947 19.375 67.6361 19.9609 66.4173 20.3438L65.3275 18.5859C66.39 18.2656 67.3158 17.7891 68.1048 17.1562C68.9017 16.5156 69.5111 15.7812 69.9329 14.9531C70.3626 14.125 70.5775 13.2578 70.5775 12.3516V11.4727H72.4173V12.3516ZM72.7923 12.3516C72.7923 13.1953 73.0072 14 73.4368 14.7656C73.8743 15.5234 74.4915 16.1953 75.2884 16.7812C76.0931 17.3672 77.0345 17.8086 78.1126 18.1055L77.0697 19.8164C75.8353 19.4727 74.7572 18.9375 73.8353 18.2109C72.9212 17.4844 72.2142 16.6172 71.7142 15.6094C71.222 14.6016 70.9798 13.5156 70.9876 12.3516V11.4727H72.7923V12.3516ZM77.4447 12.2344H65.9251V10.4648H77.4447V12.2344ZM72.8158 11.2617H70.5775V7.99219H72.8158V11.2617ZM82.4017 20.8008H80.1868V8.00391H82.4017V20.8008ZM75.347 21.2227C76.8079 21.2148 78.0736 21.3633 79.1439 21.668C80.222 21.9648 81.0462 22.4062 81.6165 22.9922C82.1868 23.5703 82.472 24.2656 82.472 25.0781C82.472 25.8906 82.1868 26.5859 81.6165 27.1641C81.0462 27.75 80.2259 28.1953 79.1556 28.5C78.0853 28.8047 76.8158 28.957 75.347 28.957C73.8704 28.957 72.597 28.8047 71.5267 28.5C70.4642 28.1953 69.6439 27.75 69.0658 27.1641C68.4954 26.5859 68.2103 25.8906 68.2103 25.0781C68.2103 24.2656 68.4954 23.5703 69.0658 22.9922C69.6439 22.4062 70.4642 21.9648 71.5267 21.668C72.597 21.3633 73.8704 21.2148 75.347 21.2227ZM75.347 22.957C74.3158 22.957 73.4329 23.0391 72.6986 23.2031C71.972 23.3672 71.4134 23.6094 71.0228 23.9297C70.64 24.25 70.4486 24.6328 70.4486 25.0781C70.4486 25.5312 70.64 25.918 71.0228 26.2383C71.4056 26.5586 71.9603 26.8047 72.6868 26.9766C73.4212 27.1406 74.3079 27.2227 75.347 27.2227C76.3783 27.2227 77.265 27.1406 78.0072 26.9766C78.7493 26.8047 79.3118 26.5586 79.6947 26.2383C80.0853 25.9102 80.2806 25.5234 80.2806 25.0781C80.2806 24.6328 80.0853 24.25 79.6947 23.9297C79.3118 23.6094 78.7493 23.3672 78.0072 23.2031C77.265 23.0391 76.3783 22.957 75.347 22.957ZM102.616 23.2734H100.401V8.00391H102.616V23.2734ZM103.249 28.5703H88.8932V26.7305H103.249V28.5703ZM91.1198 27.3984H88.8932V21.7266H91.1198V27.3984ZM91.2253 9.42188C92.2721 9.42188 93.2213 9.64453 94.0729 10.0898C94.9245 10.5352 95.5924 11.1523 96.0768 11.9414C96.569 12.7305 96.8151 13.625 96.8151 14.625C96.8151 15.6328 96.569 16.5352 96.0768 17.332C95.5924 18.1211 94.9245 18.7383 94.0729 19.1836C93.2213 19.6289 92.2721 19.8516 91.2253 19.8516C90.1784 19.8516 89.2292 19.6289 88.3776 19.1836C87.5338 18.7383 86.8659 18.1211 86.3737 17.332C85.8815 16.5352 85.6354 15.6328 85.6354 14.625C85.6354 13.625 85.8815 12.7305 86.3737 11.9414C86.8659 11.1523 87.5338 10.5352 88.3776 10.0898C89.2292 9.64453 90.1784 9.42188 91.2253 9.42188ZM91.2253 11.3672C90.5768 11.3672 89.9909 11.5039 89.4674 11.7773C88.9518 12.0508 88.5456 12.4336 88.2487 12.9258C87.9518 13.418 87.8073 13.9844 87.8151 14.625C87.8073 15.2734 87.9518 15.8477 88.2487 16.3477C88.5456 16.8398 88.9518 17.2227 89.4674 17.4961C89.9909 17.7695 90.5768 17.9062 91.2253 17.9062C91.8659 17.9062 92.444 17.7695 92.9596 17.4961C93.4753 17.2227 93.8815 16.8398 94.1784 16.3477C94.4753 15.8477 94.6237 15.2734 94.6237 14.625C94.6237 13.9844 94.4753 13.418 94.1784 12.9258C93.8815 12.4336 93.4753 12.0508 92.9596 11.7773C92.444 11.5039 91.8659 11.3672 91.2253 11.3672ZM113.525 23.2734H111.287V18.6094H113.525V23.2734ZM122.889 23.9297H120.662V8.00391H122.889V23.9297ZM123.393 28.5703H108.217V26.7305H123.393V28.5703ZM110.455 27.2461H108.217V22.3828H110.455V27.2461ZM105.311 17.6016C108.115 17.5781 110.592 17.5312 112.74 17.4609C114.896 17.3828 116.959 17.2188 118.928 16.9688L119.057 18.5742C117.018 18.9023 114.881 19.1211 112.646 19.2305C110.42 19.3398 108.072 19.3906 105.604 19.3828L105.311 17.6016ZM121.213 21.9258H116.42V20.3555H121.213V21.9258ZM112.189 8.8125C113.197 8.8125 114.1 8.96484 114.896 9.26953C115.693 9.57422 116.311 10.0078 116.748 10.5703C117.186 11.1328 117.404 11.7773 117.404 12.5039C117.404 13.2461 117.186 13.8906 116.748 14.4375C116.311 14.9844 115.693 15.4102 114.896 15.7148C114.107 16.0195 113.205 16.1719 112.189 16.1719C111.158 16.1719 110.248 16.0195 109.459 15.7148C108.67 15.4102 108.057 14.9844 107.619 14.4375C107.182 13.8906 106.963 13.2461 106.963 12.5039C106.963 11.7773 107.182 11.1328 107.619 10.5703C108.057 10 108.67 9.56641 109.459 9.26953C110.256 8.96484 111.166 8.8125 112.189 8.8125ZM112.189 10.4766C111.572 10.4688 111.029 10.5469 110.561 10.7109C110.092 10.875 109.725 11.1133 109.459 11.4258C109.201 11.7383 109.076 12.0977 109.084 12.5039C109.076 12.918 109.201 13.2773 109.459 13.582C109.725 13.8867 110.092 14.125 110.561 14.2969C111.029 14.4609 111.572 14.543 112.189 14.543C112.791 14.543 113.322 14.4609 113.783 14.2969C114.252 14.125 114.619 13.8867 114.885 13.582C115.15 13.2773 115.283 12.918 115.283 12.5039C115.283 12.0977 115.15 11.7383 114.885 11.4258C114.619 11.1133 114.252 10.875 113.783 10.7109C113.322 10.5469 112.791 10.4688 112.189 10.4766ZM135.204 8.33203C136.775 8.33203 138.118 8.47266 139.236 8.75391C140.361 9.02734 141.216 9.43359 141.802 9.97266C142.396 10.5117 142.693 11.1641 142.693 11.9297C142.693 12.7188 142.396 13.3867 141.802 13.9336C141.216 14.4805 140.365 14.8945 139.247 15.1758C138.13 15.4492 136.783 15.5898 135.204 15.5977C133.618 15.5898 132.267 15.4492 131.15 15.1758C130.033 14.8945 129.173 14.4805 128.572 13.9336C127.978 13.3867 127.681 12.7188 127.681 11.9297C127.681 11.1641 127.978 10.5117 128.572 9.97266C129.173 9.43359 130.033 9.02734 131.15 8.75391C132.275 8.47266 133.626 8.33203 135.204 8.33203ZM135.204 9.98438C134.087 9.98438 133.142 10.0625 132.368 10.2188C131.595 10.375 131.005 10.5977 130.599 10.8867C130.201 11.1758 130.005 11.5234 130.013 11.9297C130.005 12.3672 130.201 12.7344 130.599 13.0312C131.005 13.3281 131.591 13.5508 132.357 13.6992C133.122 13.8477 134.072 13.9219 135.204 13.9219C136.329 13.9219 137.279 13.8477 138.052 13.6992C138.833 13.5508 139.419 13.332 139.81 13.043C140.208 12.7461 140.408 12.375 140.408 11.9297C140.408 11.5234 140.208 11.1758 139.81 10.8867C139.411 10.5977 138.822 10.375 138.04 10.2188C137.259 10.0625 136.314 9.98438 135.204 9.98438ZM144.779 18.6562H125.63V16.875H144.779V18.6562ZM142.353 25.1953H130.142V27.5273H127.951V23.5898H140.173V21.9375H127.915V20.2734H142.353V25.1953ZM142.962 28.7812H127.951V27.0586H142.962V28.7812ZM167.406 13.4062H162.027V11.6133H167.406V13.4062ZM168.684 18.7852H166.457V7.98047H168.684V18.7852ZM168.684 25.0078H157.187V28.0312H154.996V23.332H166.48V21.5391H154.961V19.7812H168.684V25.0078ZM169.398 28.7227H154.996V26.9531H169.398V28.7227ZM158.148 10.5C158.148 11.8047 157.914 13.0117 157.445 14.1211C156.977 15.2305 156.301 16.1992 155.418 17.0273C154.543 17.8477 153.504 18.4648 152.301 18.8789L151.105 17.0977C152.176 16.7617 153.105 16.2617 153.895 15.5977C154.684 14.9258 155.289 14.1562 155.711 13.2891C156.141 12.4141 156.359 11.4844 156.367 10.5V8.67188H158.148V10.5ZM158.57 10.5C158.562 11.3984 158.766 12.2539 159.18 13.0664C159.594 13.8711 160.184 14.5898 160.949 15.2227C161.715 15.8555 162.617 16.3359 163.656 16.6641L162.473 18.3867C161.309 17.9805 160.293 17.3906 159.426 16.6172C158.566 15.8438 157.902 14.9336 157.434 13.8867C156.973 12.832 156.742 11.7031 156.742 10.5V8.67188H158.57V10.5ZM187.304 15.1641H182.769V13.3359H187.304V15.1641ZM188.898 20.4844H186.671V7.98047H188.898V20.4844ZM181.855 21.082C183.324 21.082 184.589 21.2383 185.652 21.5508C186.714 21.8633 187.531 22.3164 188.101 22.9102C188.679 23.4961 188.968 24.2031 188.968 25.0312C188.968 25.8594 188.679 26.5664 188.101 27.1523C187.531 27.7461 186.714 28.1992 185.652 28.5117C184.589 28.8242 183.324 28.9844 181.855 28.9922C180.394 28.9844 179.132 28.8242 178.07 28.5117C177.007 28.1992 176.191 27.7461 175.62 27.1523C175.05 26.5664 174.765 25.8594 174.765 25.0312C174.765 24.2031 175.05 23.4961 175.62 22.9102C176.191 22.3164 177.007 21.8633 178.07 21.5508C179.132 21.2383 180.394 21.082 181.855 21.082ZM181.855 22.793C180.831 22.793 179.952 22.8828 179.218 23.0625C178.492 23.2344 177.933 23.4883 177.542 23.8242C177.159 24.1602 176.968 24.5625 176.968 25.0312C176.968 25.5 177.159 25.8984 177.542 26.2266C177.933 26.5547 178.492 26.8086 179.218 26.9883C179.952 27.1602 180.831 27.2461 181.855 27.2461C182.878 27.2461 183.757 27.1602 184.492 26.9883C185.226 26.8086 185.784 26.5547 186.167 26.2266C186.558 25.8984 186.753 25.5 186.753 25.0312C186.753 24.5625 186.558 24.1602 186.167 23.8242C185.784 23.4883 185.226 23.2344 184.492 23.0625C183.757 22.8828 182.878 22.793 181.855 22.793ZM178.48 11.7305C178.48 13.0195 178.242 14.2383 177.765 15.3867C177.288 16.5352 176.605 17.543 175.714 18.4102C174.824 19.2695 173.777 19.9219 172.574 20.3672L171.413 18.5859C172.468 18.2188 173.39 17.6797 174.179 16.9688C174.976 16.25 175.585 15.4375 176.007 14.5312C176.437 13.625 176.652 12.6914 176.652 11.7305V10.1016H178.48V11.7305ZM178.902 11.707C178.902 12.5977 179.105 13.457 179.511 14.2852C179.917 15.1133 180.503 15.8555 181.269 16.5117C182.034 17.168 182.933 17.6719 183.964 18.0234L182.827 19.793C181.656 19.3789 180.636 18.7656 179.769 17.9531C178.909 17.1406 178.245 16.1953 177.777 15.1172C177.316 14.0391 177.089 12.9023 177.097 11.707V10.1016H178.902V11.707ZM183.425 11.2617H172.081V9.42188H183.425V11.2617ZM201.975 13.2656H191.557V11.4727H201.975V13.2656ZM196.784 14.5195C197.659 14.5195 198.444 14.7266 199.139 15.1406C199.835 15.5547 200.378 16.1289 200.768 16.8633C201.159 17.5977 201.354 18.4336 201.354 19.3711C201.354 20.3086 201.159 21.1445 200.768 21.8789C200.378 22.6133 199.835 23.1953 199.139 23.625C198.444 24.0469 197.659 24.2578 196.784 24.2578C195.917 24.2578 195.135 24.0469 194.44 23.625C193.745 23.1953 193.202 22.6133 192.811 21.8789C192.428 21.1445 192.237 20.3086 192.237 19.3711C192.237 18.4414 192.432 17.6094 192.823 16.875C193.221 16.1406 193.764 15.5664 194.452 15.1523C195.139 14.7305 195.917 14.5195 196.784 14.5195ZM196.784 16.3828C196.276 16.3906 195.827 16.5195 195.436 16.7695C195.053 17.0195 194.753 17.3711 194.534 17.8242C194.315 18.2773 194.206 18.793 194.206 19.3711C194.206 19.9492 194.315 20.4609 194.534 20.9062C194.753 21.3516 195.053 21.6992 195.436 21.9492C195.827 22.1992 196.272 22.3242 196.772 22.3242C197.28 22.3242 197.729 22.1992 198.12 21.9492C198.518 21.6992 198.831 21.3516 199.057 20.9062C199.284 20.4609 199.397 19.9492 199.397 19.3711C199.397 18.793 199.284 18.2773 199.057 17.8242C198.831 17.3711 198.518 17.0195 198.12 16.7695C197.721 16.5195 197.276 16.3906 196.784 16.3828ZM209.581 28.9805H207.46V7.98047H209.581V28.9805ZM208.163 18.5508H204.319V16.7344H208.163V18.5508ZM205.046 27.9961H202.948V8.47266H205.046V27.9961ZM197.897 12.5859H195.694V8.60156H197.897V12.5859ZM222.072 10.957C222.072 12.1758 221.701 13.293 220.959 14.3086C220.217 15.3164 219.213 16.1602 217.947 16.8398C216.682 17.5195 215.279 17.9805 213.74 18.2227L212.885 16.4766C214.197 16.2969 215.408 15.9336 216.518 15.3867C217.627 14.832 218.506 14.168 219.154 13.3945C219.803 12.6211 220.127 11.8086 220.127 10.957V10.1484H222.072V10.957ZM222.658 10.957C222.658 11.8086 222.978 12.6211 223.619 13.3945C224.268 14.168 225.146 14.832 226.256 15.3867C227.365 15.9336 228.58 16.2969 229.9 16.4766L229.092 18.2227C227.537 17.9805 226.123 17.5195 224.85 16.8398C223.584 16.1602 222.58 15.3164 221.838 14.3086C221.096 13.293 220.725 12.1758 220.725 10.957V10.1484H222.658V10.957ZM222.447 28.9922H220.256V21.0586H222.447V28.9922ZM230.967 21.6445H211.818V19.8281H230.967V21.6445ZM229.174 11.0156H213.588V9.23438H229.174V11.0156ZM244.314 17.2266H240.376V15.3633H244.314V17.2266ZM238.021 13.8164C238.021 15.332 237.829 16.7891 237.447 18.1875C237.072 19.5859 236.513 20.8438 235.771 21.9609C235.036 23.0703 234.158 23.9375 233.134 24.5625L231.74 22.8984C232.7 22.3281 233.525 21.5625 234.212 20.6016C234.9 19.6328 235.415 18.5664 235.759 17.4023C236.111 16.2383 236.286 15.043 236.286 13.8164V9.90234H238.021V13.8164ZM238.431 13.7227C238.431 14.8945 238.591 16.0312 238.911 17.1328C239.232 18.2344 239.708 19.2461 240.341 20.168C240.974 21.0898 241.743 21.8281 242.65 22.3828L241.408 24.0938C240.392 23.4844 239.533 22.6367 238.829 21.5508C238.126 20.457 237.603 19.2422 237.259 17.9062C236.915 16.5703 236.747 15.1758 236.755 13.7227V9.90234H238.431V13.7227ZM250.103 28.9805H247.958V7.98047H250.103V28.9805ZM245.743 27.9492H243.646V8.37891H245.743V27.9492ZM259.044 24.9258H256.852V18.7734H259.044V24.9258ZM266.872 24.9258H264.633V18.7734H266.872V24.9258ZM271.465 26.3672H252.247V24.5273H271.465V26.3672ZM261.821 9.19922C263.313 9.20703 264.645 9.4375 265.817 9.89062C266.997 10.3438 267.915 10.9883 268.571 11.8242C269.235 12.6523 269.567 13.6055 269.567 14.6836C269.567 15.7773 269.235 16.7344 268.571 17.5547C267.915 18.375 266.997 19.0156 265.817 19.4766C264.645 19.9297 263.313 20.1562 261.821 20.1562C260.321 20.1562 258.985 19.9297 257.813 19.4766C256.641 19.0156 255.723 18.375 255.059 17.5547C254.395 16.7344 254.063 15.7773 254.063 14.6836C254.063 13.6055 254.395 12.6523 255.059 11.8242C255.723 10.9883 256.641 10.3438 257.813 9.89062C258.985 9.4375 260.321 9.20703 261.821 9.19922ZM261.821 11.0039C260.719 10.9961 259.747 11.1445 258.903 11.4492C258.059 11.7461 257.403 12.1758 256.934 12.7383C256.473 13.293 256.243 13.9414 256.243 14.6836C256.243 15.4258 256.473 16.0781 256.934 16.6406C257.403 17.2031 258.059 17.6406 258.903 17.9531C259.755 18.2578 260.727 18.4141 261.821 18.4219C262.907 18.4141 263.872 18.2578 264.715 17.9531C265.559 17.6406 266.215 17.2031 266.684 16.6406C267.161 16.0781 267.399 15.4258 267.399 14.6836C267.399 13.9414 267.161 13.293 266.684 12.7383C266.215 12.1758 265.559 11.7461 264.715 11.4492C263.872 11.1445 262.907 10.9961 261.821 11.0039Z" fill="white"/>
</svg>
