<svg width="32" height="44" viewBox="0 0 32 32" fill="none" xmlns="http://www.w3.org/2000/svg">
<path d="M5.67509 22.1251C4.1862 19.6131 3.66541 16.644 4.21048 13.7753C4.75555 10.9065 6.329 8.33537 8.63545 6.5445C10.9419 4.75364 13.8227 3.86623 16.7371 4.04888C19.6514 4.23152 22.3989 5.47165 24.4637 7.53646C26.5285 9.60127 27.7687 12.3488 27.9513 15.2631C28.134 18.1775 27.2465 21.0583 25.4557 23.3647C23.6648 25.6712 21.0937 27.2446 18.2249 27.7897C15.3561 28.3348 12.3871 27.814 9.87509 26.3251L5.72509 27.5001C5.55507 27.5498 5.37479 27.5529 5.20317 27.509C5.03154 27.4651 4.87488 27.3758 4.74962 27.2506C4.62435 27.1253 4.53509 26.9686 4.49119 26.797C4.44729 26.6254 4.45036 26.4451 4.50009 26.2751L5.67509 22.1251Z" fill="#764AF1" stroke="#764AF1" stroke-width="2" stroke-linecap="round" stroke-linejoin="round"/>
</svg>
