<svg width="48" height="48" viewBox="0 0 48 48" fill="none" xmlns="http://www.w3.org/2000/svg">
<rect width="48" height="48" rx="24" fill="#FFEDBE"/>
<rect x="16.0588" y="24.1777" width="3.52941" height="7.94118" rx="1.76471" fill="#C3ADFF"/>
<path d="M16.9411 26.825C15.771 26.825 14.6489 26.3602 13.8215 25.5329C12.9941 24.7055 12.5293 23.5833 12.5293 22.4133C12.5293 21.2432 12.9941 20.1211 13.8215 19.2937C14.6489 18.4663 15.771 18.0015 16.9411 18.0015H21.3528C21.3528 18.0015 27.3639 18.0015 33.1433 13.1596C33.2718 13.0532 33.4279 12.9855 33.5934 12.9642C33.7589 12.943 33.927 12.9691 34.0783 13.0395C34.2295 13.1099 34.3577 13.2218 34.448 13.3622C34.5382 13.5025 34.5868 13.6655 34.5881 13.8324V30.9942C34.5868 31.161 34.5382 31.3241 34.448 31.4644C34.3577 31.6047 34.2295 31.7166 34.0783 31.787C33.927 31.8575 33.7589 31.8836 33.5934 31.8623C33.4279 31.8411 33.2718 31.7733 33.1433 31.6669C27.3639 26.825 21.3528 26.825 21.3528 26.825H16.9411Z" fill="#C3ADFF"/>
<path d="M12.5293 22.4137C12.5293 19.9772 14.5045 18.002 16.9411 18.002H21.3528V26.8255H16.9411C14.5045 26.8255 12.5293 24.8503 12.5293 22.4137Z" fill="#764AF1"/>
</svg>
