<svg width="32" height="56" viewBox="0 0 32 32" fill="none" xmlns="http://www.w3.org/2000/svg">
<path d="M27.226 13.9454C28.4341 14.4692 29.4838 15.3006 30.2705 16.3565C30.3695 16.4886 30.4298 16.6456 30.4447 16.81C30.4595 16.9745 30.4282 17.1397 30.3544 17.2874C30.2806 17.435 30.1671 17.5592 30.0267 17.646C29.8863 17.7328 29.7244 17.7788 29.5594 17.7788H24.6705C24.5533 17.7803 24.4371 17.7583 24.3286 17.7141C24.22 17.67 24.1214 17.6046 24.0386 17.5217C23.9558 17.4389 23.8904 17.3403 23.8462 17.2318C23.8021 17.1233 23.7801 17.007 23.7816 16.8899C23.7851 16.0829 23.646 15.2817 23.3705 14.5232C22.8141 12.9473 21.7205 11.6176 20.2816 10.7677C20.1247 10.6735 20.0002 10.5337 19.9247 10.3669C19.8493 10.2002 19.8265 10.0144 19.8594 9.83432C19.9912 9.14301 20.2854 8.4929 20.7176 7.9375C21.1498 7.3821 21.7078 6.93728 22.3455 6.63965C22.9833 6.34203 23.6826 6.2001 24.3859 6.22557C25.0892 6.25103 25.7764 6.44314 26.391 6.78611C27.0055 7.12907 27.5298 7.61307 27.9208 8.19827C28.3117 8.78348 28.5581 9.45315 28.6396 10.1522C28.7211 10.8512 28.6355 11.5596 28.3898 12.2191C28.144 12.8786 27.7451 13.4702 27.226 13.9454Z" fill="#C3ADFF"/>
<path d="M5.00006 13.9454C3.79196 14.4692 2.74226 15.3006 1.95561 16.3565C1.85657 16.4886 1.79625 16.6456 1.78142 16.81C1.7666 16.9745 1.79785 17.1397 1.87168 17.2874C1.9455 17.435 2.05898 17.5592 2.1994 17.646C2.33983 17.7328 2.50164 17.7788 2.66672 17.7788H7.55561C7.67276 17.7803 7.78901 17.7583 7.89753 17.7141C8.00605 17.67 8.10464 17.6046 8.18748 17.5217C8.27032 17.4389 8.33573 17.3403 8.37988 17.2318C8.42402 17.1233 8.44599 17.007 8.4445 16.8899C8.44095 16.0829 8.58013 15.2817 8.85561 14.5232C9.41194 12.9473 10.5055 11.6176 11.9445 10.7677C12.1014 10.6735 12.2259 10.5337 12.3014 10.3669C12.3768 10.2002 12.3996 10.0144 12.3667 9.83432C12.2349 9.14301 11.9407 8.4929 11.5085 7.9375C11.0762 7.3821 10.5183 6.93728 9.88056 6.63965C9.24282 6.34203 8.54351 6.2001 7.8402 6.22557C7.13689 6.25103 6.44968 6.44314 5.83513 6.78611C5.22058 7.12907 4.69626 7.61307 4.30533 8.19827C3.91439 8.78348 3.66802 9.45315 3.58648 10.1522C3.50494 10.8512 3.59058 11.5596 3.83633 12.2191C4.08209 12.8786 4.48094 13.4702 5.00006 13.9454Z" fill="#C3ADFF"/>
<path d="M21.216 18.4383C20.892 19.5048 20.242 20.4429 19.3574 21.121C21.0857 21.8883 22.4868 23.2422 23.3129 24.9432C23.3787 25.0784 23.4081 25.2283 23.3984 25.3783C23.3886 25.5283 23.34 25.6732 23.2574 25.7988C23.1804 25.9276 23.0714 26.0342 22.9409 26.1082C22.8104 26.1822 22.663 26.2211 22.5129 26.221H9.71293C9.56292 26.2211 9.41545 26.1822 9.28496 26.1082C9.15447 26.0342 9.04542 25.9276 8.96849 25.7988C8.88583 25.6732 8.83725 25.5283 8.82751 25.3783C8.81777 25.2283 8.8472 25.0784 8.91293 24.9432C9.73902 23.2422 11.1402 21.8883 12.8685 21.121C11.9838 20.4429 11.3339 19.5048 11.0099 18.4383C10.6859 17.3718 10.7042 16.2306 11.0622 15.175C11.4202 14.1195 12.0999 13.2026 13.0058 12.5533C13.9117 11.9039 14.9983 11.5547 16.1129 11.5547C17.2275 11.5547 18.3141 11.9039 19.2201 12.5533C20.126 13.2026 20.8057 14.1195 21.1637 15.175C21.5217 16.2306 21.54 17.3718 21.216 18.4383Z" fill="#764AF1"/>
</svg>
