<svg width="28" height="28" viewBox="0 0 28 28" fill="none" xmlns="http://www.w3.org/2000/svg">
<path d="M23.7785 3.04776L3.39947 8.7941C3.22865 8.84335 3.07688 8.94346 2.96437 9.0811C2.85186 9.21874 2.78395 9.38739 2.76967 9.56459C2.7554 9.7418 2.79543 9.91914 2.88445 10.073C2.97348 10.2269 3.10726 10.35 3.26799 10.426L12.6261 14.8653C12.8142 14.945 12.964 15.0948 13.0437 15.2829L17.483 24.641C17.559 24.8018 17.6821 24.9355 17.836 25.0246C17.9899 25.1136 18.1672 25.1536 18.3444 25.1393C18.5216 25.1251 18.6903 25.0572 18.8279 24.9446C18.9656 24.8321 19.0657 24.6804 19.1149 24.5096L24.8613 4.13051C24.9045 3.9803 24.9066 3.82126 24.8676 3.66992C24.8285 3.51858 24.7496 3.38047 24.6391 3.26995C24.5285 3.15943 24.3904 3.08053 24.2391 3.04146C24.0878 3.00238 23.9287 3.00456 23.7785 3.04776Z" stroke="#764AF1" stroke-width="2" stroke-linecap="round" stroke-linejoin="round"/>
<path d="M12.9126 14.9927L17.8623 10.043" stroke="#764AF1" stroke-width="2" stroke-linecap="round" stroke-linejoin="round"/>
</svg>
