<svg width="161" height="138" viewBox="0 0 161 138" fill="none" xmlns="http://www.w3.org/2000/svg">
<g clip-path="url(#clip0_443_17180)">
<path d="M31.6198 54.1346C31.6198 56.8973 29.9694 58.739 27.461 58.739H15.4468C13.0044 58.739 11.2881 56.8973 11.2881 54.1346V18.8782H4.15876C1.71631 18.8782 0 17.0364 0 14.2738V4.93349C0 2.17086 1.71631 0.329102 4.15876 0.329102H38.7491C41.2575 0.329102 42.9078 2.17086 42.9078 4.93349V14.2738C42.9078 17.0364 41.2575 18.8782 38.7491 18.8782H31.6198V54.1346Z" fill="#764AF1"/>
<path d="M66.4081 54.1346C66.4081 56.8973 64.7578 58.739 62.2494 58.739H50.3012C47.7928 58.739 46.1425 56.8973 46.1425 54.1346V4.93349C46.1425 2.17086 47.7928 0.329102 50.3012 0.329102H62.2494C64.7578 0.329102 66.4081 2.17086 66.4081 4.93349V54.1346Z" fill="#764AF1"/>
<path d="M113.673 54.1346C113.673 56.8973 111.956 58.739 109.514 58.739H102.517C100.074 58.739 97.7639 57.0288 96.7737 54.4635L88.1261 30.9154H87.598V54.1346C87.598 56.8973 85.9477 58.739 83.4393 58.739H75.0557C72.5473 58.739 70.897 56.8973 70.897 54.1346V4.93349C70.897 2.17086 72.5473 0.329102 75.0557 0.329102H81.987C84.4954 0.329102 86.7399 2.0393 87.73 4.6046L96.4436 28.1527H96.9057V4.93349C96.9057 2.17086 98.556 0.329102 101.064 0.329102H109.514C111.956 0.329102 113.673 2.17086 113.673 4.93349V54.1346Z" fill="#764AF1"/>
<path d="M161 15.8522C161 18.6149 159.35 20.4566 156.841 20.4566H147.93C145.157 20.4566 145.091 16.5758 142.583 15.4576C142.319 15.3918 142.121 15.326 141.791 15.326H137.764C136.179 15.326 135.585 16.4442 135.585 18.4833V40.5844C135.585 42.6234 136.179 43.7417 137.764 43.7417H141.13C142.583 43.6759 143.309 42.6234 143.309 40.5844V36.6377H142.583C140.14 36.6377 138.424 34.796 138.424 32.0334V28.5472C138.424 25.7846 140.14 23.9428 142.583 23.9428H156.841C159.35 23.9428 161 25.7846 161 28.5472V44.9914C161 54.2002 156.049 59.0677 147.864 59.0677H131.031C122.911 59.0677 117.894 54.2002 117.894 44.9914V14.0763C117.894 4.86749 122.911 0 131.031 0H147.864C156.049 0 161 4.86749 161 14.0763V15.8522Z" fill="#764AF1"/>
<path d="M31.6198 122.314C31.6198 125.077 29.9694 126.919 27.461 126.919H15.4468C13.0044 126.919 11.2881 125.077 11.2881 122.314V87.0579H4.15876C1.71631 87.0579 0 85.2161 0 82.4535V73.1132C0 70.3505 1.71631 68.5088 4.15876 68.5088H38.7491C41.2575 68.5088 42.9078 70.3505 42.9078 73.1132V82.4535C42.9078 85.2161 41.2575 87.0579 38.7491 87.0579H31.6198V122.314Z" fill="#1A1A1C"/>
<path d="M66.4081 122.314C66.4081 125.077 64.7578 126.919 62.2494 126.919H50.3012C47.7928 126.919 46.1425 125.077 46.1425 122.314V73.1132C46.1425 70.3505 47.7928 68.5088 50.3012 68.5088H62.2494C64.7578 68.5088 66.4081 70.3505 66.4081 73.1132V122.314Z" fill="#1A1A1C"/>
<path d="M113.673 122.314C113.673 125.077 111.956 126.919 109.514 126.919H102.517C100.074 126.919 97.7639 125.208 96.7737 122.643L88.1261 99.0951H87.598V122.314C87.598 125.077 85.9477 126.919 83.4393 126.919H75.0557C72.5473 126.919 70.897 125.077 70.897 122.314V73.1132C70.897 70.3505 72.5473 68.5088 75.0557 68.5088H81.987C84.4954 68.5088 86.7399 70.219 87.73 72.7843L96.4436 96.3324H96.9057V73.1132C96.9057 70.3505 98.556 68.5088 101.064 68.5088H109.514C111.956 68.5088 113.673 70.3505 113.673 73.1132V122.314Z" fill="#1A1A1C"/>
<path d="M161 84.6901C161 87.4528 159.35 89.2945 156.841 89.2945H147.93C145.157 89.2945 145.091 85.4137 142.583 84.2955C142.319 84.2297 142.121 84.1639 141.791 84.1639H137.764C136.179 84.1639 135.585 85.2821 135.585 87.3212V109.422C135.585 111.461 136.179 112.58 137.764 112.58H141.13C142.583 112.514 143.309 111.461 143.309 109.422V105.476H142.583C140.14 105.476 138.424 103.634 138.424 100.871V97.3851C138.424 94.6224 140.14 92.7807 142.583 92.7807H156.841C159.35 92.7807 161 94.6224 161 97.3851V113.829C161 123.038 156.049 127.906 147.864 127.906H131.031C122.911 127.906 117.894 123.038 117.894 113.829V82.9141C117.894 73.7054 122.911 68.8379 131.031 68.8379H147.864C156.049 68.8379 161 73.7054 161 82.9141V84.6901Z" fill="#1A1A1C"/>
</g>
<defs>
<clipPath id="clip0_443_17180">
<rect width="161" height="138" fill="white"/>
</clipPath>
</defs>
</svg>
