<svg width="68" height="59" viewBox="0 0 68 59" fill="none" xmlns="http://www.w3.org/2000/svg">
<path d="M0.181641 0.789062H17.1006V3.99707H10.5527V22H6.75879V3.99707H0.181641V0.789062ZM23.9268 22H20.1182V0.789062H23.9268V22ZM45.2988 22H41.915L31.8809 7.5127H31.6904V22H27.8818V0.789062H31.3096L41.3145 15.291H41.5049V0.789062H45.2988V22ZM63.4482 7.55664C63.2139 6.80469 62.8623 6.15527 62.3936 5.6084C61.9346 5.06152 61.3682 4.64648 60.6943 4.36328C60.0303 4.07031 59.2783 3.92383 58.4385 3.92383C57.2861 3.92383 56.2656 4.2168 55.377 4.80273C54.4883 5.37891 53.79 6.22852 53.2822 7.35156C52.7744 8.46484 52.5205 9.80762 52.5205 11.3799C52.5205 12.9619 52.7695 14.3096 53.2676 15.4229C53.7754 16.5361 54.4785 17.3906 55.377 17.9863C56.2754 18.5723 57.3252 18.8652 58.5264 18.8652C59.6006 18.8652 60.5332 18.6602 61.3242 18.25C62.125 17.8301 62.7354 17.2393 63.1553 16.4775C63.585 15.7061 63.8047 14.8027 63.8145 13.7676L64.6787 13.8994H58.9072V10.8965H67.5059V13.4453C67.5059 15.2324 67.125 16.7949 66.3633 18.1328C65.6113 19.4609 64.5518 20.4863 63.1846 21.209C61.8174 21.9316 60.2598 22.293 58.5117 22.293C56.5586 22.293 54.8398 21.8535 53.3555 20.9746C51.8809 20.0859 50.7334 18.8213 49.9131 17.1807C49.1025 15.54 48.6973 13.6162 48.6973 11.4092C48.6973 9.18262 49.1123 7.24902 49.9424 5.6084C50.7822 3.95801 51.9346 2.69336 53.3994 1.81445C54.8643 0.935547 56.5244 0.496094 58.3799 0.496094C59.9229 0.496094 61.334 0.793945 62.6133 1.38965C63.9023 1.97559 64.957 2.80566 65.7773 3.87988C66.6074 4.9541 67.1299 6.17969 67.3447 7.55664H63.4482ZM0.181641 36.7891H17.1006V39.9971H10.5527V58H6.75879V39.9971H0.181641V36.7891ZM23.9268 58H20.1182V36.7891H23.9268V58ZM45.2988 58H41.915L31.8809 43.5127H31.6904V58H27.8818V36.7891H31.3096L41.3145 51.291H41.5049V36.7891H45.2988V58ZM63.4482 43.5566C63.2139 42.8047 62.8623 42.1553 62.3936 41.6084C61.9346 41.0615 61.3682 40.6465 60.6943 40.3633C60.0303 40.0703 59.2783 39.9238 58.4385 39.9238C57.2861 39.9238 56.2656 40.2168 55.377 40.8027C54.4883 41.3789 53.79 42.2285 53.2822 43.3516C52.7744 44.4648 52.5205 45.8076 52.5205 47.3799C52.5205 48.9619 52.7695 50.3096 53.2676 51.4229C53.7754 52.5361 54.4785 53.3906 55.377 53.9863C56.2754 54.5723 57.3252 54.8652 58.5264 54.8652C59.6006 54.8652 60.5332 54.6602 61.3242 54.25C62.125 53.8301 62.7354 53.2393 63.1553 52.4775C63.585 51.7061 63.8047 50.8027 63.8145 49.7676L64.6787 49.8994H58.9072V46.8965H67.5059V49.4453C67.5059 51.2324 67.125 52.7949 66.3633 54.1328C65.6113 55.4609 64.5518 56.4863 63.1846 57.209C61.8174 57.9316 60.2598 58.293 58.5117 58.293C56.5586 58.293 54.8398 57.8535 53.3555 56.9746C51.8809 56.0859 50.7334 54.8213 49.9131 53.1807C49.1025 51.54 48.6973 49.6162 48.6973 47.4092C48.6973 45.1826 49.1123 43.249 49.9424 41.6084C50.7822 39.958 51.9346 38.6934 53.3994 37.8145C54.8643 36.9355 56.5244 36.4961 58.3799 36.4961C59.9229 36.4961 61.334 36.7939 62.6133 37.3896C63.9023 37.9756 64.957 38.8057 65.7773 39.8799C66.6074 40.9541 67.1299 42.1797 67.3447 43.5566H63.4482Z" fill="#404040"/>
</svg>
