<svg width="263" height="226" viewBox="0 0 263 226" fill="none" xmlns="http://www.w3.org/2000/svg">
<g clip-path="url(#clip0_424_14386)">
<path d="M51.6521 88.6554C51.6521 93.1797 48.9563 96.1959 44.8586 96.1959H25.233C21.2432 96.1959 18.4395 93.1797 18.4395 88.6554V30.9166H6.7935C2.80367 30.9166 0 27.9004 0 23.3761V8.07958C0 3.55527 2.80367 0.539062 6.7935 0.539062H63.2981C67.3958 0.539062 70.0916 3.55527 70.0916 8.07958V23.3761C70.0916 27.9004 67.3958 30.9166 63.2981 30.9166H51.6521V88.6554Z" fill="#764AF1"/>
<path d="M108.48 88.6554C108.48 93.1797 105.784 96.1959 101.687 96.1959H82.169C78.0713 96.1959 75.3755 93.1797 75.3755 88.6554V8.07958C75.3755 3.55527 78.0713 0.539062 82.169 0.539062H101.687C105.784 0.539062 108.48 3.55527 108.48 8.07958V88.6554Z" fill="#764AF1"/>
<path d="M185.689 88.6554C185.689 93.1797 182.885 96.1959 178.895 96.1959H167.465C163.475 96.1959 159.701 93.3951 158.084 89.194L143.957 50.6296H143.095V88.6554C143.095 93.1797 140.399 96.1959 136.301 96.1959H122.606C118.509 96.1959 115.813 93.1797 115.813 88.6554V8.07958C115.813 3.55527 118.509 0.539062 122.606 0.539062H133.929C138.027 0.539062 141.693 3.33982 143.31 7.54097L157.544 46.1053H158.299V8.07958C158.299 3.55527 160.995 0.539062 165.093 0.539062H178.895C182.885 0.539062 185.689 3.55527 185.689 8.07958V88.6554Z" fill="#764AF1"/>
<path d="M263 25.9609C263 30.4852 260.304 33.5014 256.207 33.5014H241.649C237.12 33.5014 237.012 27.1459 232.915 25.3146C232.483 25.2069 232.16 25.0991 231.621 25.0991H225.043C222.455 25.0991 221.484 26.9304 221.484 30.2698V66.4642C221.484 69.8036 222.455 71.6349 225.043 71.6349H230.542C232.915 71.5272 234.101 69.8036 234.101 66.4642V60.001H232.915C228.925 60.001 226.121 56.9847 226.121 52.4604V46.7512C226.121 42.2269 228.925 39.2107 232.915 39.2107H256.207C260.304 39.2107 263 42.2269 263 46.7512V73.6816C263 88.7626 254.913 96.734 241.541 96.734H214.044C200.78 96.734 192.585 88.7626 192.585 73.6816V23.0524C192.585 7.9714 200.78 0 214.044 0H241.541C254.913 0 263 7.9714 263 23.0524V25.9609Z" fill="#764AF1"/>
<path d="M51.6521 200.312C51.6521 204.836 48.9563 207.852 44.8586 207.852H25.233C21.2432 207.852 18.4395 204.836 18.4395 200.312V142.573H6.7935C2.80367 142.573 0 139.557 0 135.032V119.736C0 115.212 2.80367 112.195 6.7935 112.195H63.2981C67.3958 112.195 70.0916 115.212 70.0916 119.736V135.032C70.0916 139.557 67.3958 142.573 63.2981 142.573H51.6521V200.312Z" fill="#1A1A1C"/>
<path d="M108.48 200.312C108.48 204.836 105.784 207.852 101.687 207.852H82.169C78.0713 207.852 75.3755 204.836 75.3755 200.312V119.736C75.3755 115.212 78.0713 112.195 82.169 112.195H101.687C105.784 112.195 108.48 115.212 108.48 119.736V200.312Z" fill="#1A1A1C"/>
<path d="M185.689 200.312C185.689 204.836 182.885 207.852 178.895 207.852H167.465C163.475 207.852 159.701 205.051 158.084 200.85L143.957 162.286H143.095V200.312C143.095 204.836 140.399 207.852 136.301 207.852H122.606C118.509 207.852 115.813 204.836 115.813 200.312V119.736C115.813 115.212 118.509 112.195 122.606 112.195H133.929C138.027 112.195 141.693 114.996 143.31 119.197L157.544 157.762H158.299V119.736C158.299 115.212 160.995 112.195 165.093 112.195H178.895C182.885 112.195 185.689 115.212 185.689 119.736V200.312Z" fill="#1A1A1C"/>
<path d="M263 138.695C263 143.22 260.304 146.236 256.207 146.236H241.649C237.12 146.236 237.012 139.88 232.915 138.049C232.483 137.941 232.16 137.834 231.621 137.834H225.043C222.455 137.834 221.484 139.665 221.484 143.004V179.199C221.484 182.538 222.455 184.369 225.043 184.369H230.542C232.915 184.262 234.101 182.538 234.101 179.199V172.735H232.915C228.925 172.735 226.121 169.719 226.121 165.195V159.486C226.121 154.961 228.925 151.945 232.915 151.945H256.207C260.304 151.945 263 154.961 263 159.486V186.416C263 201.497 254.913 209.468 241.541 209.468H214.044C200.78 209.468 192.585 201.497 192.585 186.416V135.787C192.585 120.706 200.78 112.734 214.044 112.734H241.541C254.913 112.734 263 120.706 263 135.787V138.695Z" fill="#1A1A1C"/>
</g>
<defs>
<clipPath id="clip0_424_14386">
<rect width="263" height="226" fill="white"/>
</clipPath>
</defs>
</svg>
